<svg xmlns="http://www.w3.org/2000/svg" viewBox="0 0 234.39 31.00" role="img" aria-label="DC WmsHub">
  <path fill="#1870fc" fill-rule="evenodd" d="M13.86 1.01 L39.44 1.01 L41.46 1.51 L42.97 2.27 L44.48 3.53 L45.62 5.42 L46.00 6.80 L46.00 8.95 L45.62 10.46 L44.74 12.22 L37.17 24.20 L35.91 25.83 L34.28 27.35 L31.25 29.11 L27.72 29.99 L1.01 29.99 L12.98 11.59 L13.48 11.34 L22.56 11.34 L14.24 23.82 L26.72 23.82 L28.98 23.06 L30.87 21.55 L37.55 11.09 L37.80 9.58 L37.43 8.44 L36.67 7.81 L35.54 7.43 L8.70 7.43 L8.82 6.93 L12.22 2.90 L13.11 1.51 Z M59.73 1.01 L79.14 1.01 L79.14 1.64 L75.11 6.68 L73.97 7.43 L61.12 7.43 L59.23 8.07 L57.59 9.20 L56.08 10.96 L49.40 21.93 L41.46 22.05 L41.33 21.42 L51.04 5.80 L52.67 4.16 L54.82 2.65 L57.09 1.64 Z M87.08 4.03 L91.61 4.03 L91.99 4.41 L89.22 21.17 L99.93 4.41 L105.22 4.28 L105.48 4.54 L103.33 21.17 L113.29 4.54 L113.92 4.03 L118.58 4.03 L118.83 4.16 L118.83 4.79 L113.79 12.48 L110.01 18.78 L108.75 20.41 L103.84 28.48 L97.66 28.48 L99.30 13.36 L89.60 28.48 L83.55 28.61 L83.30 27.98 L86.32 4.91 Z M176.30 4.03 L180.46 4.03 L180.71 4.28 L180.71 5.04 L179.20 8.82 L177.43 14.37 L187.39 14.37 L190.79 4.54 L191.42 4.03 L195.45 4.03 L195.83 4.28 L195.83 5.04 L188.02 27.60 L187.76 28.23 L187.26 28.61 L182.85 28.61 L182.60 28.23 L185.87 18.65 L175.92 18.65 L172.64 28.23 L172.14 28.61 L167.73 28.61 L167.48 28.35 L175.41 5.04 Z M220.78 4.16 L225.07 4.28 L225.07 4.91 L223.05 10.84 L229.98 10.84 L231.74 11.47 L232.88 12.60 L233.26 13.48 L233.38 15.25 L231.49 21.30 L230.48 24.20 L229.48 26.09 L227.96 27.60 L226.83 28.23 L225.57 28.61 L212.59 28.61 L212.46 27.85 L213.09 25.83 L216.12 17.52 L220.28 4.66 Z M122.49 10.71 L142.90 10.71 L144.92 11.22 L145.67 11.72 L146.43 12.98 L146.43 15.12 L142.02 28.23 L141.52 28.61 L137.36 28.61 L137.11 28.23 L141.26 16.26 L141.39 15.37 L141.01 14.87 L134.46 14.74 L133.96 15.00 L133.58 15.50 L129.29 28.35 L128.91 28.61 L124.76 28.61 L124.63 27.85 L127.28 20.54 L128.91 15.12 L128.54 14.74 L122.49 14.74 L121.73 15.12 L121.10 16.00 L117.07 28.23 L116.57 28.61 L112.41 28.61 L112.28 27.85 L116.44 15.63 L117.32 13.74 L118.20 12.60 L119.72 11.47 Z M156.01 10.71 L166.72 10.71 L167.10 10.96 L166.22 14.11 L165.59 14.74 L155.76 14.74 L155.00 15.25 L154.50 16.13 L154.37 17.14 L155.13 17.77 L161.05 17.77 L162.18 18.02 L163.82 19.15 L164.45 20.67 L164.45 22.43 L163.95 24.20 L163.19 25.71 L161.30 27.72 L159.03 28.61 L146.43 28.61 L146.30 27.85 L147.19 25.33 L147.82 24.70 L158.15 24.70 L159.28 23.82 L159.66 22.81 L159.66 22.18 L159.28 21.67 L152.23 21.42 L150.84 20.79 L150.09 20.04 L149.58 18.90 L149.71 16.38 L150.09 15.25 L151.35 13.11 L153.11 11.59 Z M197.97 10.84 L201.88 10.84 L202.13 11.09 L202.13 11.72 L197.97 23.57 L198.10 24.45 L198.73 24.83 L204.78 24.83 L209.44 11.09 L209.82 10.84 L213.98 10.96 L213.98 11.85 L208.56 27.85 L207.93 28.61 L196.08 28.61 L194.44 27.98 L193.56 27.09 L193.06 25.71 L193.18 23.69 L196.96 13.11 L197.34 11.47 Z M221.79 14.74 L218.26 24.57 L218.39 24.83 L224.43 24.83 L225.32 24.45 L225.95 23.69 L227.96 17.89 L228.59 15.88 L228.22 14.87 Z M40.33 23.82 L45.24 23.82 L45.24 24.45 L41.08 29.87 L35.79 29.99 L35.79 29.61 L38.81 25.71 L39.07 25.08 Z M47.89 23.82 L52.93 23.82 L52.93 24.45 L51.67 25.83 L48.89 29.74 L48.39 29.99 L43.48 29.99 L43.60 29.36 Z M55.57 23.82 L71.83 23.82 L71.83 24.32 L68.68 27.72 L68.05 28.73 L66.54 29.99 L51.16 29.99 L51.04 29.61 L51.29 29.24 Z"/>
</svg>
